<?xml version="1.0" encoding="UTF-8"?>
<svg width="1200pt" height="1200pt" version="1.1" viewBox="0 0 1200 1200" xmlns="http://www.w3.org/2000/svg">
 <path d="m491.14 413.72h-280.16l864.49-202.2 9.2773 39.695c-33.301 9.5742-53.629 43.621-45.648 77.734 7.9805 34.117 41.293 55.621 75.383 49.43l8.375 35.832c-33.289 9.5742-53.629 43.621-45.648 77.734 7.9922 34.117 41.293 55.609 75.371 49.43l8.3867 35.82c-33.301 9.5742-53.629 43.621-45.648 77.734 7.9805 34.117 41.293 55.621 75.383 49.43l9.3047 39.672-147.96 34.609v-24.816l-26.473-1.332c-20.004-1.0078-35.664-17.449-35.664-37.441 0-19.992 15.66-36.445 35.664-37.453l26.473-1.3203v-89.84l-22.668-1.1406-16.848-72.023c4.0312-1.7383 8.4102-2.832 13.043-3.0586l26.473-1.332v-95.16h-62.785l-5.125-21.863c-3.4688 1.4297-7.0938 2.6055-10.848 3.4805-37.754 8.832-75.527-14.617-84.359-52.379-1.7383-7.3789-2.207-14.746-1.6094-21.898zm470.88 133.93c0 35.027 27.539 63.551 62.16 65.293v36.793c-34.621 1.7383-62.16 30.254-62.16 65.293 0 35.027 27.539 63.551 62.16 65.281v36.793c-34.621 1.7383-62.16 30.254-62.16 65.293 0 35.027 27.539 63.551 62.16 65.293v40.754l-1024.2-0.007813v-40.754c34.598-1.7539 62.148-30.266 62.148-65.293 0-35.039-27.539-63.562-62.148-65.293v-36.793c34.598-1.7383 62.148-30.254 62.148-65.281 0-35.039-27.539-63.562-62.148-65.293v-36.793c34.598-1.7383 62.148-30.254 62.148-65.293 0-35.031-27.551-63.543-62.148-65.285v-40.762h1024.2v40.766c-34.621 1.7383-62.16 30.262-62.16 65.289zm-67.836 48.73c-3.6953 0.60156-7.4883 0.92578-11.352 0.92578-38.785 0-70.234-31.441-70.234-70.223 0-7.5703 1.2109-14.855 3.4336-21.684l-605.75-0.003906c0.83984 4.3438 1.2969 8.832 1.2969 13.43 0 38.773-31.441 70.223-70.223 70.223-3.875 0-7.668-0.32422-11.363-0.9375v245.57c3.707-0.61328 7.5-0.9375 11.363-0.9375 38.773 0 70.223 31.441 70.223 70.234 0 7.5703-1.2109 14.844-3.4336 21.684h605.75c-0.83984-4.3438-1.2969-8.8203-1.2969-13.414 0-38.785 31.441-70.223 70.234-70.223 3.8633 0 7.668 0.32422 11.352 0.92578zm-251.22 198.5v-225.06l-218.47 29.258c-0.011719 0-0.011719 177.25-0.011719 177.25-8.6406-2.7734-18.359-3.8867-28.488-2.8906-32.062 3.1094-56.074 25.945-53.652 50.977 2.4375 25.043 30.383 42.828 62.449 39.73 32.09-3.1211 56.102-25.945 53.676-51.012-0.046876-0.42188 0.058593-1.2344 0.058593-1.2344v-153.75l150.42-21.973v123.13c-8.6406-2.7461-18.348-3.875-28.5-2.8906-32.062 3.1094-56.074 25.945-53.664 50.988 2.4492 25.066 30.406 42.828 62.461 39.73 32.062-3.1328 56.102-25.945 53.652-50.988-0.027344-0.44531 0.070313-1.2734 0.070313-1.2734z" fill="#3dc8a9"/>
</svg>
