<?xml version="1.0" encoding="UTF-8"?>
<svg width="3600pt" height="3600pt" version="1.1" viewBox="0 0 3600 3600" xmlns="http://www.w3.org/2000/svg">
 <g fill="#3dc8a9">
  <path d="m3431.1 2418.9h-3262.3c-44.742-0.050781-87.637-17.844-119.27-49.48-31.637-31.637-49.434-74.531-49.48-119.27v-1237.8c0.046875-44.742 17.844-87.637 49.48-119.27 31.633-31.637 74.527-49.434 119.27-49.48h3262.3c44.738 0.046875 87.633 17.844 119.27 49.48 31.637 31.633 49.43 74.527 49.48 119.27v1237.8c-0.050781 44.738-17.844 87.633-49.48 119.27-31.637 31.637-74.531 49.43-119.27 49.48zm-3262.3-1462.8c-14.914 0.015625-29.215 5.9453-39.758 16.492-10.547 10.543-16.477 24.844-16.492 39.758v1237.8c0.007813 14.914 5.9375 29.215 16.484 39.762s24.848 16.477 39.766 16.488h3262.3c14.914-0.011719 29.215-5.9414 39.762-16.488s16.477-24.848 16.488-39.762v-1237.8c-0.015625-14.914-5.9492-29.215-16.492-39.758-10.547-10.547-24.844-16.477-39.758-16.492z"/>
  <path d="m3431.1 2587.7h-3262.3c-44.742-0.046875-87.637-17.844-119.27-49.48-31.637-31.633-49.434-74.527-49.48-119.27v-1237.8c0-20.098 10.719-38.664 28.125-48.715 17.402-10.047 38.844-10.047 56.25 0 17.402 10.051 28.125 28.617 28.125 48.715v1237.8c0.007813 14.918 5.9375 29.219 16.484 39.766s24.848 16.477 39.766 16.484h3262.3c14.914-0.007812 29.215-5.9375 39.762-16.484s16.477-24.848 16.488-39.766v-1237.8c0-20.098 10.719-38.664 28.125-48.715 17.402-10.047 38.844-10.047 56.25 0 17.402 10.051 28.125 28.617 28.125 48.715v1237.8c-0.050781 44.742-17.844 87.637-49.48 119.27-31.637 31.637-74.531 49.43-119.27 49.477z"/>
  <path d="m3431.1 2756.5h-3262.3c-44.742-0.046875-87.637-17.844-119.27-49.48-31.637-31.633-49.434-74.527-49.48-119.27v-1237.9c0-20.098 10.719-38.668 28.125-48.715 17.402-10.047 38.844-10.047 56.25 0 17.402 10.047 28.125 28.617 28.125 48.715v1237.9c0.007813 14.918 5.9375 29.219 16.484 39.766s24.848 16.477 39.766 16.484h3262.3c14.914-0.007812 29.215-5.9375 39.762-16.484s16.477-24.848 16.488-39.766v-1237.9c0-20.098 10.719-38.668 28.125-48.715 17.402-10.047 38.844-10.047 56.25 0 17.402 10.047 28.125 28.617 28.125 48.715v1237.9c-0.050781 44.742-17.844 87.637-49.48 119.27-31.637 31.637-74.531 49.43-119.27 49.477z"/>
  <path d="m2924.9 1181.1c-14.922 0.003906-29.23-5.9219-39.781-16.473-10.547-10.547-16.473-24.859-16.469-39.777v-112.5c0-20.098 10.723-38.668 28.125-48.715s38.848-10.047 56.25 0 28.125 28.617 28.125 48.715v112.5c0.003906 14.918-5.9219 29.23-16.473 39.777-10.547 10.551-24.859 16.477-39.777 16.473z"/>
  <path d="m2924.9 1462.5c-14.922 0.003906-29.23-5.9219-39.781-16.473-10.547-10.547-16.473-24.859-16.469-39.777v-112.5c0-20.098 10.723-38.664 28.125-48.715 17.402-10.047 38.848-10.047 56.25 0 17.402 10.051 28.125 28.617 28.125 48.715v112.5c0.003906 14.918-5.9219 29.23-16.473 39.777-10.547 10.551-24.859 16.477-39.777 16.473z"/>
  <path d="m2924.9 1743.9c-14.922 0.003906-29.23-5.9219-39.781-16.469-10.547-10.551-16.473-24.859-16.469-39.781v-112.5c0-20.094 10.723-38.664 28.125-48.715 17.402-10.047 38.848-10.047 56.25 0 17.402 10.051 28.125 28.621 28.125 48.715v112.5c0.003906 14.922-5.9219 29.23-16.473 39.781-10.547 10.547-24.859 16.473-39.777 16.469z"/>
  <path d="m2924.9 2025.2c-14.922 0.011719-29.234-5.9141-39.785-16.465-10.551-10.551-16.473-24.863-16.465-39.785v-112.5c0-20.094 10.723-38.664 28.125-48.711 17.402-10.051 38.848-10.051 56.25 0 17.402 10.047 28.125 28.617 28.125 48.711v112.5c0.007813 14.922-5.9141 29.234-16.465 39.785-10.551 10.551-24.863 16.473-39.785 16.465z"/>
  <path d="m2924.9 2306.6c-14.922 0.011719-29.234-5.9141-39.785-16.465s-16.473-24.863-16.465-39.785v-112.5c0-20.094 10.723-38.664 28.125-48.711 17.402-10.051 38.848-10.051 56.25 0 17.402 10.047 28.125 28.617 28.125 48.711v112.5c0.007813 14.922-5.9141 29.234-16.465 39.785s-24.863 16.477-39.785 16.465z"/>
  <path d="m3318.8 2081c-14.922 0.007812-29.234-5.918-39.785-16.469-10.551-10.551-16.473-24.863-16.465-39.781v-787.36c0-20.098 10.723-38.664 28.125-48.715 17.402-10.047 38.848-10.047 56.25 0 17.402 10.051 28.125 28.617 28.125 48.715v787.36c0.007812 14.918-5.9141 29.23-16.465 39.781-10.551 10.551-24.863 16.477-39.785 16.469z"/>
  <path d="m3150 1799.8c-14.918 0.003906-29.23-5.9219-39.777-16.473-10.551-10.551-16.477-24.859-16.473-39.777v-224.89c0-20.098 10.723-38.668 28.125-48.715 17.402-10.051 38.848-10.051 56.25 0 17.402 10.047 28.125 28.617 28.125 48.715v224.89c0.003906 14.918-5.9219 29.227-16.473 39.777-10.547 10.551-24.859 16.477-39.777 16.473z"/>
  <path d="m449.12 2081.4c-44.75-0.003906-87.664-17.785-119.31-49.43-31.641-31.645-49.414-74.562-49.414-119.31s17.777-87.668 49.422-119.31c31.645-31.645 74.559-49.422 119.31-49.422 44.75-0.003906 87.668 17.773 119.31 49.414 31.648 31.641 49.426 74.559 49.43 119.31-0.046875 44.738-17.844 87.633-49.48 119.27-31.637 31.637-74.527 49.43-119.27 49.48zm0-224.95c-14.91 0.007812-29.207 5.9375-39.746 16.488-10.539 10.547-16.457 24.852-16.449 39.762 0.007813 14.914 5.9375 29.211 16.488 39.75 10.547 10.535 24.852 16.453 39.762 16.445 14.914-0.007812 29.211-5.9375 39.75-16.488 10.535-10.547 16.453-24.852 16.445-39.762-0.019532-14.906-5.9531-29.199-16.5-39.734s-24.844-16.457-39.75-16.465z"/>
  <path d="m955.26 1968.9c-33.375-0.003906-65.996-9.9023-93.742-28.445-27.75-18.543-49.375-44.898-62.141-75.73-12.77-30.836-16.109-64.762-9.5977-97.492 6.5156-32.734 22.59-62.797 46.188-86.395 23.602-23.594 53.668-39.664 86.402-46.172 32.73-6.5078 66.656-3.1641 97.488 9.6094 30.832 12.773 57.184 34.402 75.723 62.156 18.539 27.75 28.434 60.371 28.43 93.746-0.054688 44.734-17.852 87.625-49.488 119.25-31.637 31.629-74.527 49.422-119.26 49.469zm0-224.97c-14.914 0.003906-29.215 5.9297-39.758 16.477-10.543 10.547-16.469 24.852-16.465 39.766 0 14.91 5.9258 29.215 16.469 39.758 10.547 10.547 24.848 16.473 39.762 16.473 14.914 0 29.219-5.9219 39.766-16.465 10.547-10.543 16.473-24.844 16.477-39.758-0.015625-14.914-5.9453-29.215-16.492-39.762-10.543-10.547-24.844-16.477-39.758-16.492z"/>
  <path d="m561.62 1968.9c-14.922 0.007813-29.234-5.9141-39.785-16.465-10.551-10.551-16.473-24.863-16.465-39.785v-562.59c0-20.098 10.723-38.664 28.125-48.715 17.402-10.047 38.848-10.047 56.25 0 17.402 10.051 28.125 28.617 28.125 48.715v562.59c0.007812 14.922-5.9141 29.234-16.465 39.785-10.551 10.551-24.863 16.473-39.785 16.465z"/>
  <path d="m1067.8 1856.4c-14.922 0-29.234-5.9336-39.781-16.488-10.551-10.555-16.473-24.867-16.469-39.789v-562.58c0-20.094 10.719-38.664 28.125-48.711 17.402-10.051 38.844-10.051 56.25 0 17.402 10.047 28.125 28.617 28.125 48.711v562.58c0.003906 14.922-5.918 29.234-16.469 39.789-10.551 10.555-24.859 16.488-39.781 16.488z"/>
  <path d="m561.57 1406.3c-18.637-0.007813-36.059-9.25-46.52-24.672-10.461-15.426-12.602-35.031-5.7188-52.348 6.8867-17.32 21.902-30.102 40.098-34.133l506.14-112.47c19.617-4.3594 40.066 2.082 53.645 16.891 13.582 14.809 18.23 35.738 12.195 54.902-6.0352 19.168-21.836 33.656-41.449 38.016l-506.14 112.47v-0.003906c-4.0234 0.89453-8.1289 1.3438-12.25 1.3477z"/>
  <path d="m2587.4 1575.1h-1181.2c-20.098 0-38.668-10.723-48.715-28.125-10.047-17.402-10.047-38.848 0-56.25 10.047-17.402 28.617-28.125 48.715-28.125h1181.2c20.098 0 38.664 10.723 48.715 28.125 10.047 17.402 10.047 38.848 0 56.25-10.051 17.402-28.617 28.125-48.715 28.125z"/>
  <path d="m2081.2 1743.7h-675.11c-20.094 0-38.664-10.723-48.715-28.125-10.047-17.402-10.047-38.848 0-56.25 10.051-17.402 28.621-28.125 48.715-28.125h675.11c20.098 0 38.664 10.723 48.715 28.125 10.047 17.402 10.047 38.848 0 56.25-10.051 17.402-28.617 28.125-48.715 28.125z"/>
  <path d="m2587.4 1406.2h-1181.2c-20.098 0-38.668-10.723-48.715-28.125s-10.047-38.848 0-56.25 28.617-28.125 48.715-28.125h1181.2c20.098 0 38.664 10.723 48.715 28.125 10.047 17.402 10.047 38.848 0 56.25-10.051 17.402-28.617 28.125-48.715 28.125z"/>
  <path d="m1518.8 2025.1h-112.5c-20.098 0-38.664-10.723-48.715-28.125-10.047-17.406-10.047-38.848 0-56.25 10.051-17.406 28.617-28.125 48.715-28.125h112.5c20.098 0 38.664 10.719 48.715 28.125 10.047 17.402 10.047 38.844 0 56.25-10.051 17.402-28.617 28.125-48.715 28.125z"/>
  <path d="m1800 2025.1h-112.5c-20.098 0-38.664-10.723-48.715-28.125-10.047-17.406-10.047-38.848 0-56.25 10.051-17.406 28.617-28.125 48.715-28.125h112.5c20.098 0 38.664 10.719 48.715 28.125 10.047 17.402 10.047 38.844 0 56.25-10.051 17.402-28.617 28.125-48.715 28.125z"/>
  <path d="m2081.2 2025.1h-112.5c-20.098 0-38.664-10.723-48.715-28.125-10.047-17.406-10.047-38.848 0-56.25 10.051-17.406 28.617-28.125 48.715-28.125h112.5c20.098 0 38.664 10.719 48.715 28.125 10.047 17.402 10.047 38.844 0 56.25-10.051 17.402-28.617 28.125-48.715 28.125z"/>
 </g>
</svg>
